{
    "asset" : {
        "generator" : "Khronos glTF Blender I/O v3.4.50",
        "version" : "2.0"
    },
    "scene" : 0,
    "scenes" : [
        {
            "name" : "Scene",
            "nodes" : [
                0
            ]
        }
    ],
    "nodes" : [
        {
            "mesh" : 0,
            "name" : "rock.008_Rock_0",
            "rotation" : [
                -0.70710688829422,
                0,
                0,
                0.7071066498756409
            ],
            "scale" : [
                0.4304729700088501,
                0.4304730296134949,
                0.4304730296134949
            ],
            "translation" : [
                1.3924366235733032,
                0,
                1.037806749343872
            ]
        }
    ],
    "materials" : [
        {
            "doubleSided" : true,
            "name" : "Rock",
            "pbrMetallicRoughness" : {
                "baseColorFactor" : [
                    0.2447226643562317,
                    0.2447226643562317,
                    0.2447226643562317,
                    1
                ],
                "metallicFactor" : 0,
                "roughnessFactor" : 0.97177654504776
            }
        }
    ],
    "meshes" : [
        {
            "name" : "rock.008_Rock_0",
            "primitives" : [
                {
                    "attributes" : {
                        "POSITION" : 0,
                        "NORMAL" : 1
                    },
                    "indices" : 2,
                    "material" : 0
                }
            ]
        }
    ],
    "accessors" : [
        {
            "bufferView" : 0,
            "componentType" : 5126,
            "count" : 298,
            "max" : [
                0.7490732669830322,
                0.7066009640693665,
                2.5445339679718018
            ],
            "min" : [
                -0.7388204336166382,
                -0.7607100009918213,
                -0.0977478101849556
            ],
            "type" : "VEC3"
        },
        {
            "bufferView" : 1,
            "componentType" : 5126,
            "count" : 298,
            "type" : "VEC3"
        },
        {
            "bufferView" : 2,
            "componentType" : 5123,
            "count" : 300,
            "type" : "SCALAR"
        }
    ],
    "bufferViews" : [
        {
            "buffer" : 0,
            "byteLength" : 3576,
            "byteOffset" : 0,
            "target" : 34962
        },
        {
            "buffer" : 0,
            "byteLength" : 3576,
            "byteOffset" : 3576,
            "target" : 34962
        },
        {
            "buffer" : 0,
            "byteLength" : 600,
            "byteOffset" : 7152,
            "target" : 34963
        }
    ],
    "buffers" : [
        {
            "byteLength" : 7752,
            "uri" : "data:application/octet-stream;base64,"
        }
    ]
}
