{
    "asset" : {
        "generator" : "Khronos glTF Blender I/O v3.4.50",
        "version" : "2.0"
    },
    "scene" : 0,
    "scenes" : [
        {
            "name" : "Scene",
            "nodes" : [
                0
            ]
        }
    ],
    "nodes" : [
        {
            "mesh" : 0,
            "name" : "rock.009_Rock_0",
            "rotation" : [
                -0.70710688829422,
                0,
                0,
                0.7071066498756409
            ],
            "scale" : [
                0.4304729700088501,
                0.4304729998111725,
                0.4304729998111725
            ],
            "translation" : [
                -0.10000000149011612,
                0,
                0.09999999403953552
            ]
        }
    ],
    "materials" : [
        {
            "doubleSided" : true,
            "name" : "Rock.008",
            "pbrMetallicRoughness" : {
                "baseColorFactor" : [
                    0.2447226643562317,
                    0.2447226643562317,
                    0.2447226643562317,
                    1
                ],
                "metallicFactor" : 0,
                "roughnessFactor" : 0.97177654504776
            }
        }
    ],
    "meshes" : [
        {
            "name" : "rock.009_Rock_0",
            "primitives" : [
                {
                    "attributes" : {
                        "POSITION" : 0,
                        "NORMAL" : 1
                    },
                    "indices" : 2,
                    "material" : 0
                }
            ]
        }
    ],
    "accessors" : [
        {
            "bufferView" : 0,
            "componentType" : 5126,
            "count" : 300,
            "max" : [
                1.311932921409607,
                0.6718322038650513,
                0.8815772533416748
            ],
            "min" : [
                -0.7098119258880615,
                -0.5057299733161926,
                -0.10735630244016647
            ],
            "type" : "VEC3"
        },
        {
            "bufferView" : 1,
            "componentType" : 5126,
            "count" : 300,
            "type" : "VEC3"
        },
        {
            "bufferView" : 2,
            "componentType" : 5123,
            "count" : 300,
            "type" : "SCALAR"
        }
    ],
    "bufferViews" : [
        {
            "buffer" : 0,
            "byteLength" : 3600,
            "byteOffset" : 0,
            "target" : 34962
        },
        {
            "buffer" : 0,
            "byteLength" : 3600,
            "byteOffset" : 3600,
            "target" : 34962
        },
        {
            "buffer" : 0,
            "byteLength" : 600,
            "byteOffset" : 7200,
            "target" : 34963
        }
    ],
    "buffers" : [
        {
            "byteLength" : 7800,
            "uri" : "data:application/octet-stream;base64,"
        }
    ]
}
