{
    "asset" : {
        "generator" : "Khronos glTF Blender I/O v3.4.50",
        "version" : "2.0"
    },
    "scene" : 0,
    "scenes" : [
        {
            "name" : "Scene",
            "nodes" : [
                0
            ]
        }
    ],
    "nodes" : [
        {
            "mesh" : 0,
            "name" : "rock.007_Rock_0",
            "rotation" : [
                -0.70710688829422,
                0,
                0,
                0.7071066498756409
            ],
            "scale" : [
                0.4304729700088501,
                0.4304729998111725,
                0.4304729998111725
            ]
        }
    ],
    "materials" : [
        {
            "doubleSided" : true,
            "name" : "Rock.006",
            "pbrMetallicRoughness" : {
                "baseColorFactor" : [
                    0.2447226643562317,
                    0.2447226643562317,
                    0.2447226643562317,
                    1
                ],
                "metallicFactor" : 0,
                "roughnessFactor" : 0.97177654504776
            }
        }
    ],
    "meshes" : [
        {
            "name" : "rock.007_Rock_0",
            "primitives" : [
                {
                    "attributes" : {
                        "POSITION" : 0,
                        "NORMAL" : 1
                    },
                    "indices" : 2,
                    "material" : 0
                }
            ]
        }
    ],
    "accessors" : [
        {
            "bufferView" : 0,
            "componentType" : 5126,
            "count" : 296,
            "max" : [
                1.1531473398208618,
                1.0633585453033447,
                1.1177436113357544
            ],
            "min" : [
                -1.1164510250091553,
                -1.1486455202102661,
                -0.10174845159053802
            ],
            "type" : "VEC3"
        },
        {
            "bufferView" : 1,
            "componentType" : 5126,
            "count" : 296,
            "type" : "VEC3"
        },
        {
            "bufferView" : 2,
            "componentType" : 5123,
            "count" : 300,
            "type" : "SCALAR"
        }
    ],
    "bufferViews" : [
        {
            "buffer" : 0,
            "byteLength" : 3552,
            "byteOffset" : 0,
            "target" : 34962
        },
        {
            "buffer" : 0,
            "byteLength" : 3552,
            "byteOffset" : 3552,
            "target" : 34962
        },
        {
            "buffer" : 0,
            "byteLength" : 600,
            "byteOffset" : 7104,
            "target" : 34963
        }
    ],
    "buffers" : [
        {
            "byteLength" : 7704,
            "uri" : "data:application/octet-stream;base64,"
        }
    ]
}
