{
    "asset" : {
        "generator" : "Khronos glTF Blender I/O v3.4.50",
        "version" : "2.0"
    },
    "scene" : 0,
    "scenes" : [
        {
            "name" : "Scene",
            "nodes" : [
                0
            ]
        }
    ],
    "nodes" : [
        {
            "mesh" : 0,
            "name" : "Sphere.047_leaves_0",
            "rotation" : [
                -0.70710688829422,
                0,
                0,
                0.7071066498756409
            ],
            "scale" : [
                0.48910146951675415,
                0.48910149931907654,
                1.0234222412109375
            ],
            "translation" : [
                0,
                0.1557031124830246,
                0.09999999403953552
            ]
        }
    ],
    "materials" : [
        {
            "doubleSided" : true,
            "name" : "leaves.011",
            "pbrMetallicRoughness" : {
                "baseColorFactor" : [
                    0.1420000046491623,
                    0.800000011920929,
                    0.1420000046491623,
                    1
                ],
                "metallicFactor" : 0,
                "roughnessFactor" : 0.8630180954933167
            }
        }
    ],
    "meshes" : [
        {
            "name" : "Sphere.047_leaves_0",
            "primitives" : [
                {
                    "attributes" : {
                        "POSITION" : 0,
                        "TEXCOORD_0" : 1,
                        "NORMAL" : 2
                    },
                    "indices" : 3,
                    "material" : 0
                }
            ]
        }
    ],
    "accessors" : [
        {
            "bufferView" : 0,
            "componentType" : 5126,
            "count" : 1872,
            "max" : [
                0.3012455105781555,
                0.49894458055496216,
                0.1939513087272644
            ],
            "min" : [
                -0.35160720348358154,
                -0.1434786170721054,
                -0.18386732041835785
            ],
            "type" : "VEC3"
        },
        {
            "bufferView" : 1,
            "componentType" : 5126,
            "count" : 1872,
            "type" : "VEC2"
        },
        {
            "bufferView" : 2,
            "componentType" : 5126,
            "count" : 1872,
            "type" : "VEC3"
        },
        {
            "bufferView" : 3,
            "componentType" : 5123,
            "count" : 1920,
            "type" : "SCALAR"
        }
    ],
    "bufferViews" : [
        {
            "buffer" : 0,
            "byteLength" : 22464,
            "byteOffset" : 0,
            "target" : 34962
        },
        {
            "buffer" : 0,
            "byteLength" : 14976,
            "byteOffset" : 22464,
            "target" : 34962
        },
        {
            "buffer" : 0,
            "byteLength" : 22464,
            "byteOffset" : 37440,
            "target" : 34962
        },
        {
            "buffer" : 0,
            "byteLength" : 3840,
            "byteOffset" : 59904,
            "target" : 34963
        }
    ],
    "buffers" : [
        {
            "byteLength" : 63744,
            "uri" : "data:application/octet-stream;base64,"
        }
    ]
}
