{
    "asset" : {
        "generator" : "Khronos glTF Blender I/O v3.4.50",
        "version" : "2.0"
    },
    "scene" : 0,
    "scenes" : [
        {
            "name" : "Scene",
            "nodes" : [
                0
            ]
        }
    ],
    "nodes" : [
        {
            "mesh" : 0,
            "name" : "Sphere.035_leaves_0",
            "rotation" : [
                -0.70710688829422,
                0,
                0,
                0.7071066498756409
            ],
            "scale" : [
                0.2562367618083954,
                0.2562367618083954,
                0.13202379643917084
            ],
            "translation" : [
                0,
                0.08706720918416977,
                0
            ]
        }
    ],
    "materials" : [
        {
            "doubleSided" : true,
            "name" : "leaves.009",
            "pbrMetallicRoughness" : {
                "baseColorFactor" : [
                    0.1420000046491623,
                    0.800000011920929,
                    0.1420000046491623,
                    1
                ],
                "metallicFactor" : 0,
                "roughnessFactor" : 0.8630180954933167
            }
        }
    ],
    "meshes" : [
        {
            "name" : "Sphere.035_leaves_0",
            "primitives" : [
                {
                    "attributes" : {
                        "POSITION" : 0,
                        "TEXCOORD_0" : 1,
                        "NORMAL" : 2
                    },
                    "indices" : 3,
                    "material" : 0
                }
            ]
        }
    ],
    "accessors" : [
        {
            "bufferView" : 0,
            "componentType" : 5126,
            "count" : 234,
            "max" : [
                0.9910715222358704,
                0.9871761202812195,
                1.4868898391723633
            ],
            "min" : [
                -0.9911471009254456,
                -1.037190556526184,
                -0.6696419715881348
            ],
            "type" : "VEC3"
        },
        {
            "bufferView" : 1,
            "componentType" : 5126,
            "count" : 234,
            "type" : "VEC2"
        },
        {
            "bufferView" : 2,
            "componentType" : 5126,
            "count" : 234,
            "type" : "VEC3"
        },
        {
            "bufferView" : 3,
            "componentType" : 5123,
            "count" : 240,
            "type" : "SCALAR"
        }
    ],
    "bufferViews" : [
        {
            "buffer" : 0,
            "byteLength" : 2808,
            "byteOffset" : 0,
            "target" : 34962
        },
        {
            "buffer" : 0,
            "byteLength" : 1872,
            "byteOffset" : 2808,
            "target" : 34962
        },
        {
            "buffer" : 0,
            "byteLength" : 2808,
            "byteOffset" : 4680,
            "target" : 34962
        },
        {
            "buffer" : 0,
            "byteLength" : 480,
            "byteOffset" : 7488,
            "target" : 34963
        }
    ],
    "buffers" : [
        {
            "byteLength" : 7968,
            "uri" : "data:application/octet-stream;base64,"
        }
    ]
}
