{
    "asset" : {
        "generator" : "Khronos glTF Blender I/O v3.4.50",
        "version" : "2.0"
    },
    "scene" : 0,
    "scenes" : [
        {
            "name" : "Scene",
            "nodes" : [
                0
            ]
        }
    ],
    "nodes" : [
        {
            "mesh" : 0,
            "name" : "Sphere.060_wood_0",
            "rotation" : [
                0.008574984036386013,
                -0.561686635017395,
                0.006988015491515398,
                0.8272761106491089
            ],
            "scale" : [
                0.03806813433766365,
                0.03808717802166939,
                0.8515059947967529
            ],
            "translation" : [
                0.5,
                0.011696456000208855,
                -0.17999997735023499
            ]
        }
    ],
    "materials" : [
        {
            "doubleSided" : true,
            "name" : "wood.010",
            "pbrMetallicRoughness" : {
                "baseColorFactor" : [
                    0.26973700523376465,
                    0.21328799426555634,
                    0.16742299497127533,
                    1
                ],
                "metallicFactor" : 0,
                "roughnessFactor" : 0.9503642916679382
            }
        }
    ],
    "meshes" : [
        {
            "name" : "Sphere.060_wood_0",
            "primitives" : [
                {
                    "attributes" : {
                        "POSITION" : 0,
                        "TEXCOORD_0" : 1,
                        "NORMAL" : 2
                    },
                    "indices" : 3,
                    "material" : 0
                }
            ]
        }
    ],
    "accessors" : [
        {
            "bufferView" : 0,
            "componentType" : 5126,
            "count" : 342,
            "max" : [
                2.9922444820404053,
                0.9168592691421509,
                1.3572845458984375
            ],
            "min" : [
                -4.0998735427856445,
                -0.9170402884483337,
                0.15617018938064575
            ],
            "type" : "VEC3"
        },
        {
            "bufferView" : 1,
            "componentType" : 5126,
            "count" : 342,
            "type" : "VEC2"
        },
        {
            "bufferView" : 2,
            "componentType" : 5126,
            "count" : 342,
            "type" : "VEC3"
        },
        {
            "bufferView" : 3,
            "componentType" : 5123,
            "count" : 396,
            "type" : "SCALAR"
        }
    ],
    "bufferViews" : [
        {
            "buffer" : 0,
            "byteLength" : 4104,
            "byteOffset" : 0,
            "target" : 34962
        },
        {
            "buffer" : 0,
            "byteLength" : 2736,
            "byteOffset" : 4104,
            "target" : 34962
        },
        {
            "buffer" : 0,
            "byteLength" : 4104,
            "byteOffset" : 6840,
            "target" : 34962
        },
        {
            "buffer" : 0,
            "byteLength" : 792,
            "byteOffset" : 10944,
            "target" : 34963
        }
    ],
    "buffers" : [
        {
            "byteLength" : 11736,
            "uri" : "data:application/octet-stream;base64,"
        }
    ]
}
