{
    "asset" : {
        "generator" : "Khronos glTF Blender I/O v3.4.50",
        "version" : "2.0"
    },
    "scene" : 0,
    "scenes" : [
        {
            "name" : "Scene",
            "nodes" : [
                0
            ]
        }
    ],
    "nodes" : [
        {
            "mesh" : 0,
            "name" : "Sphere.058_wood_0",
            "rotation" : [
                0.006364154629409313,
                0.8649066686630249,
                -0.009047622792422771,
                0.5018107891082764
            ],
            "scale" : [
                0.06750111281871796,
                0.06750112026929855,
                0.8516520261764526
            ],
            "translation" : [
                -0.5995574593544006,
                0.011696459725499153,
                3.8397655487060547
            ]
        }
    ],
    "materials" : [
        {
            "doubleSided" : true,
            "name" : "wood",
            "pbrMetallicRoughness" : {
                "baseColorFactor" : [
                    0.26973700523376465,
                    0.21328799426555634,
                    0.16742299497127533,
                    1
                ],
                "metallicFactor" : 0,
                "roughnessFactor" : 0.9503642916679382
            }
        }
    ],
    "meshes" : [
        {
            "name" : "Sphere.058_wood_0",
            "primitives" : [
                {
                    "attributes" : {
                        "POSITION" : 0,
                        "TEXCOORD_0" : 1,
                        "NORMAL" : 2
                    },
                    "indices" : 3,
                    "material" : 0
                }
            ]
        }
    ],
    "accessors" : [
        {
            "bufferView" : 0,
            "componentType" : 5126,
            "count" : 206,
            "max" : [
                1.613166332244873,
                1.637200117111206,
                1.3871413469314575
            ],
            "min" : [
                -2.910991907119751,
                -1.6358667612075806,
                -0.6668999195098877
            ],
            "type" : "VEC3"
        },
        {
            "bufferView" : 1,
            "componentType" : 5126,
            "count" : 206,
            "type" : "VEC2"
        },
        {
            "bufferView" : 2,
            "componentType" : 5126,
            "count" : 206,
            "type" : "VEC3"
        },
        {
            "bufferView" : 3,
            "componentType" : 5123,
            "count" : 246,
            "type" : "SCALAR"
        }
    ],
    "bufferViews" : [
        {
            "buffer" : 0,
            "byteLength" : 2472,
            "byteOffset" : 0,
            "target" : 34962
        },
        {
            "buffer" : 0,
            "byteLength" : 1648,
            "byteOffset" : 2472,
            "target" : 34962
        },
        {
            "buffer" : 0,
            "byteLength" : 2472,
            "byteOffset" : 4120,
            "target" : 34962
        },
        {
            "buffer" : 0,
            "byteLength" : 492,
            "byteOffset" : 6592,
            "target" : 34963
        }
    ],
    "buffers" : [
        {
            "byteLength" : 7084,
            "uri" : "data:application/octet-stream;base64,"
        }
    ]
}
