{
    "asset" : {
        "generator" : "Khronos glTF Blender I/O v3.4.50",
        "version" : "2.0"
    },
    "scene" : 0,
    "scenes" : [
        {
            "name" : "Scene",
            "nodes" : [
                0
            ]
        }
    ],
    "nodes" : [
        {
            "mesh" : 0,
            "name" : "Sphere.059_wood_0",
            "rotation" : [
                0.007161100395023823,
                0.8156654834747314,
                -0.008430954068899155,
                0.5784180760383606
            ],
            "scale" : [
                0.038068126887083054,
                0.03808717802166939,
                0.8515058159828186
            ],
            "translation" : [
                0.09421282261610031,
                0.011696456000208855,
                3.9639205932617188
            ]
        }
    ],
    "materials" : [
        {
            "doubleSided" : true,
            "name" : "wood",
            "pbrMetallicRoughness" : {
                "baseColorFactor" : [
                    0.26973700523376465,
                    0.21328799426555634,
                    0.16742299497127533,
                    1
                ],
                "metallicFactor" : 0,
                "roughnessFactor" : 0.9503642916679382
            }
        }
    ],
    "meshes" : [
        {
            "name" : "Sphere.059_wood_0",
            "primitives" : [
                {
                    "attributes" : {
                        "POSITION" : 0,
                        "TEXCOORD_0" : 1,
                        "NORMAL" : 2
                    },
                    "indices" : 3,
                    "material" : 0
                }
            ]
        }
    ],
    "accessors" : [
        {
            "bufferView" : 0,
            "componentType" : 5126,
            "count" : 466,
            "max" : [
                5.048715114593506,
                1.637200117111206,
                1.3871413469314575
            ],
            "min" : [
                -5.169806003570557,
                -1.6358667612075806,
                -0.6668999195098877
            ],
            "type" : "VEC3"
        },
        {
            "bufferView" : 1,
            "componentType" : 5126,
            "count" : 466,
            "type" : "VEC2"
        },
        {
            "bufferView" : 2,
            "componentType" : 5126,
            "count" : 466,
            "type" : "VEC3"
        },
        {
            "bufferView" : 3,
            "componentType" : 5123,
            "count" : 570,
            "type" : "SCALAR"
        }
    ],
    "bufferViews" : [
        {
            "buffer" : 0,
            "byteLength" : 5592,
            "byteOffset" : 0,
            "target" : 34962
        },
        {
            "buffer" : 0,
            "byteLength" : 3728,
            "byteOffset" : 5592,
            "target" : 34962
        },
        {
            "buffer" : 0,
            "byteLength" : 5592,
            "byteOffset" : 9320,
            "target" : 34962
        },
        {
            "buffer" : 0,
            "byteLength" : 1140,
            "byteOffset" : 14912,
            "target" : 34963
        }
    ],
    "buffers" : [
        {
            "byteLength" : 16052,
            "uri" : "data:application/octet-stream;base64,"
        }
    ]
}
