{
    "asset" : {
        "generator" : "Khronos glTF Blender I/O v3.4.50",
        "version" : "2.0"
    },
    "scene" : 0,
    "scenes" : [
        {
            "name" : "Scene",
            "nodes" : [
                0
            ]
        }
    ],
    "nodes" : [
        {
            "mesh" : 0,
            "name" : "Sphere.062_leaves_0",
            "rotation" : [
                -0.7071070075035095,
                0,
                0,
                0.7071065902709961
            ],
            "scale" : [
                0.015039019286632538,
                0.015039020217955112,
                0.04915633797645569
            ],
            "translation" : [
                0.02500000037252903,
                -0.009015785530209541,
                0.029999999329447746
            ]
        }
    ],
    "materials" : [
        {
            "doubleSided" : true,
            "name" : "leaves.023",
            "pbrMetallicRoughness" : {
                "baseColorFactor" : [
                    0.1420000046491623,
                    0.800000011920929,
                    0.1420000046491623,
                    1
                ],
                "metallicFactor" : 0,
                "roughnessFactor" : 0.8630180954933167
            }
        }
    ],
    "meshes" : [
        {
            "name" : "Sphere.062_leaves_0.002",
            "primitives" : [
                {
                    "attributes" : {
                        "POSITION" : 0,
                        "TEXCOORD_0" : 1,
                        "NORMAL" : 2
                    },
                    "indices" : 3,
                    "material" : 0
                }
            ]
        }
    ],
    "accessors" : [
        {
            "bufferView" : 0,
            "componentType" : 5126,
            "count" : 2574,
            "max" : [
                3.336099863052368,
                7.097403526306152,
                2.5928986072540283
            ],
            "min" : [
                -6.691593647003174,
                -3.6645824909210205,
                -0.009048515930771828
            ],
            "type" : "VEC3"
        },
        {
            "bufferView" : 1,
            "componentType" : 5126,
            "count" : 2574,
            "type" : "VEC2"
        },
        {
            "bufferView" : 2,
            "componentType" : 5126,
            "count" : 2574,
            "type" : "VEC3"
        },
        {
            "bufferView" : 3,
            "componentType" : 5123,
            "count" : 2640,
            "type" : "SCALAR"
        }
    ],
    "bufferViews" : [
        {
            "buffer" : 0,
            "byteLength" : 30888,
            "byteOffset" : 0,
            "target" : 34962
        },
        {
            "buffer" : 0,
            "byteLength" : 20592,
            "byteOffset" : 30888,
            "target" : 34962
        },
        {
            "buffer" : 0,
            "byteLength" : 30888,
            "byteOffset" : 51480,
            "target" : 34962
        },
        {
            "buffer" : 0,
            "byteLength" : 5280,
            "byteOffset" : 82368,
            "target" : 34963
        }
    ],
    "buffers" : [
        {
            "byteLength" : 87648,
            "uri" : "data:application/octet-stream;base64,"
        }
    ]
}
