{
    "asset" : {
        "generator" : "Khronos glTF Blender I/O v3.4.50",
        "version" : "2.0"
    },
    "scene" : 0,
    "scenes" : [
        {
            "name" : "Scene",
            "nodes" : [
                0
            ]
        }
    ],
    "nodes" : [
        {
            "mesh" : 0,
            "name" : "Sphere.073_leaves_0",
            "rotation" : [
                -0.70710688829422,
                0,
                0,
                0.7071066498756409
            ],
            "scale" : [
                0.04454325884580612,
                0.04454325512051582,
                0.04915632680058479
            ],
            "translation" : [
                0.07999999821186066,
                -0.009015785530209541,
                0.05999999865889549
            ]
        }
    ],
    "materials" : [
        {
            "doubleSided" : true,
            "name" : "leaves.024",
            "pbrMetallicRoughness" : {
                "baseColorFactor" : [
                    0.1420000046491623,
                    0.800000011920929,
                    0.1420000046491623,
                    1
                ],
                "metallicFactor" : 0,
                "roughnessFactor" : 0.8630180954933167
            }
        }
    ],
    "meshes" : [
        {
            "name" : "Sphere.073_leaves_0.002",
            "primitives" : [
                {
                    "attributes" : {
                        "POSITION" : 0,
                        "TEXCOORD_0" : 1,
                        "NORMAL" : 2
                    },
                    "indices" : 3,
                    "material" : 0
                }
            ]
        }
    ],
    "accessors" : [
        {
            "bufferView" : 0,
            "componentType" : 5126,
            "count" : 2574,
            "max" : [
                3.3361024856567383,
                7.097426414489746,
                2.5928986072540283
            ],
            "min" : [
                -6.691592216491699,
                -3.664544105529785,
                -0.009048530831933022
            ],
            "type" : "VEC3"
        },
        {
            "bufferView" : 1,
            "componentType" : 5126,
            "count" : 2574,
            "type" : "VEC2"
        },
        {
            "bufferView" : 2,
            "componentType" : 5126,
            "count" : 2574,
            "type" : "VEC3"
        },
        {
            "bufferView" : 3,
            "componentType" : 5123,
            "count" : 2640,
            "type" : "SCALAR"
        }
    ],
    "bufferViews" : [
        {
            "buffer" : 0,
            "byteLength" : 30888,
            "byteOffset" : 0,
            "target" : 34962
        },
        {
            "buffer" : 0,
            "byteLength" : 20592,
            "byteOffset" : 30888,
            "target" : 34962
        },
        {
            "buffer" : 0,
            "byteLength" : 30888,
            "byteOffset" : 51480,
            "target" : 34962
        },
        {
            "buffer" : 0,
            "byteLength" : 5280,
            "byteOffset" : 82368,
            "target" : 34963
        }
    ],
    "buffers" : [
        {
            "byteLength" : 87648,
            "uri" : "data:application/octet-stream;base64,"
        }
    ]
}
