{
    "asset" : {
        "generator" : "Khronos glTF Blender I/O v3.4.50",
        "version" : "2.0"
    },
    "scene" : 0,
    "scenes" : [
        {
            "name" : "Scene",
            "nodes" : [
                0
            ]
        }
    ],
    "nodes" : [
        {
            "mesh" : 0,
            "name" : "Sphere.103_Flowers03_0",
            "rotation" : [
                -0.6931939721107483,
                0.13957881927490234,
                0.1395789235830307,
                0.6931937336921692
            ],
            "scale" : [
                0.013307599350810051,
                0.01330760307610035,
                0.02953520603477955
            ],
            "translation" : [
                1.1800453662872314,
                -0.008943297900259495,
                5.230030536651611
            ]
        }
    ],
    "materials" : [
        {
            "doubleSided" : true,
            "name" : "Flowers03",
            "pbrMetallicRoughness" : {
                "baseColorFactor" : [
                    0.800000011920929,
                    0.10569900274276733,
                    0.10569900274276733,
                    1
                ],
                "metallicFactor" : 0,
                "roughnessFactor" : 0.9433587193489075
            }
        }
    ],
    "meshes" : [
        {
            "name" : "Sphere.103_Flowers03_0",
            "primitives" : [
                {
                    "attributes" : {
                        "POSITION" : 0,
                        "TEXCOORD_0" : 1,
                        "NORMAL" : 2
                    },
                    "indices" : 3,
                    "material" : 0
                }
            ]
        }
    ],
    "accessors" : [
        {
            "bufferView" : 0,
            "componentType" : 5126,
            "count" : 936,
            "max" : [
                3.643235445022583,
                6.5407257080078125,
                3.1197023391723633
            ],
            "min" : [
                -21.595548629760742,
                -8.77910041809082,
                -0.013433516956865788
            ],
            "type" : "VEC3"
        },
        {
            "bufferView" : 1,
            "componentType" : 5126,
            "count" : 936,
            "type" : "VEC2"
        },
        {
            "bufferView" : 2,
            "componentType" : 5126,
            "count" : 936,
            "type" : "VEC3"
        },
        {
            "bufferView" : 3,
            "componentType" : 5123,
            "count" : 960,
            "type" : "SCALAR"
        }
    ],
    "bufferViews" : [
        {
            "buffer" : 0,
            "byteLength" : 11232,
            "byteOffset" : 0,
            "target" : 34962
        },
        {
            "buffer" : 0,
            "byteLength" : 7488,
            "byteOffset" : 11232,
            "target" : 34962
        },
        {
            "buffer" : 0,
            "byteLength" : 11232,
            "byteOffset" : 18720,
            "target" : 34962
        },
        {
            "buffer" : 0,
            "byteLength" : 1920,
            "byteOffset" : 29952,
            "target" : 34963
        }
    ],
    "buffers" : [
        {
            "byteLength" : 31872,
            "uri" : "data:application/octet-stream;base64,"
        }
    ]
}
