{
    "asset" : {
        "generator" : "Khronos glTF Blender I/O v3.4.50",
        "version" : "2.0"
    },
    "scene" : 0,
    "scenes" : [
        {
            "name" : "Scene",
            "nodes" : [
                0
            ]
        }
    ],
    "nodes" : [
        {
            "mesh" : 0,
            "name" : "Sphere.097_Flowers01_0",
            "rotation" : [
                -0.6931939721107483,
                0.13957881927490234,
                0.1395789086818695,
                0.6931937336921692
            ],
            "scale" : [
                0.015039019286632538,
                0.015039023011922836,
                0.05927560478448868
            ],
            "translation" : [
                0.08728435635566711,
                -0.008943296037614346,
                5.288700580596924
            ]
        }
    ],
    "materials" : [
        {
            "doubleSided" : true,
            "name" : "Flowers01",
            "pbrMetallicRoughness" : {
                "baseColorFactor" : [
                    0.800000011920929,
                    0.7564100027084351,
                    0.08142790198326111,
                    1
                ],
                "metallicFactor" : 0,
                "roughnessFactor" : 0.8396865725517273
            }
        }
    ],
    "meshes" : [
        {
            "name" : "Sphere.097_Flowers01_0",
            "primitives" : [
                {
                    "attributes" : {
                        "POSITION" : 0,
                        "TEXCOORD_0" : 1,
                        "NORMAL" : 2
                    },
                    "indices" : 3,
                    "material" : 0
                }
            ]
        }
    ],
    "accessors" : [
        {
            "bufferView" : 0,
            "componentType" : 5126,
            "count" : 1404,
            "max" : [
                0.9309419393539429,
                8.297863960266113,
                3.1431643962860107
            ],
            "min" : [
                -8.841548919677734,
                -0.8951449990272522,
                -0.012202262878417969
            ],
            "type" : "VEC3"
        },
        {
            "bufferView" : 1,
            "componentType" : 5126,
            "count" : 1404,
            "type" : "VEC2"
        },
        {
            "bufferView" : 2,
            "componentType" : 5126,
            "count" : 1404,
            "type" : "VEC3"
        },
        {
            "bufferView" : 3,
            "componentType" : 5123,
            "count" : 1440,
            "type" : "SCALAR"
        }
    ],
    "bufferViews" : [
        {
            "buffer" : 0,
            "byteLength" : 16848,
            "byteOffset" : 0,
            "target" : 34962
        },
        {
            "buffer" : 0,
            "byteLength" : 11232,
            "byteOffset" : 16848,
            "target" : 34962
        },
        {
            "buffer" : 0,
            "byteLength" : 16848,
            "byteOffset" : 28080,
            "target" : 34962
        },
        {
            "buffer" : 0,
            "byteLength" : 2880,
            "byteOffset" : 44928,
            "target" : 34963
        }
    ],
    "buffers" : [
        {
            "byteLength" : 47808,
            "uri" : "data:application/octet-stream;base64,"
        }
    ]
}
