{
    "asset" : {
        "generator" : "Khronos glTF Blender I/O v3.4.50",
        "version" : "2.0"
    },
    "scene" : 0,
    "scenes" : [
        {
            "name" : "Scene",
            "nodes" : [
                0
            ]
        }
    ],
    "nodes" : [
        {
            "mesh" : 0,
            "name" : "rock.004_Rock_0",
            "rotation" : [
                -0.70710688829422,
                0,
                0,
                0.7071066498756409
            ],
            "scale" : [
                0.13879942893981934,
                0.13879942893981934,
                0.13879942893981934
            ]
        }
    ],
    "materials" : [
        {
            "doubleSided" : true,
            "name" : "Rock.003",
            "pbrMetallicRoughness" : {
                "baseColorFactor" : [
                    0.2447226643562317,
                    0.2447226643562317,
                    0.2447226643562317,
                    1
                ],
                "metallicFactor" : 0,
                "roughnessFactor" : 0.97177654504776
            }
        }
    ],
    "meshes" : [
        {
            "name" : "rock.004_Rock_0",
            "primitives" : [
                {
                    "attributes" : {
                        "POSITION" : 0,
                        "NORMAL" : 1
                    },
                    "indices" : 2,
                    "material" : 0
                }
            ]
        }
    ],
    "accessors" : [
        {
            "bufferView" : 0,
            "componentType" : 5126,
            "count" : 126,
            "max" : [
                0.7146056890487671,
                0.9412578344345093,
                0.7697230577468872
            ],
            "min" : [
                -0.935326337814331,
                -0.511161208152771,
                -0.06883342564105988
            ],
            "type" : "VEC3"
        },
        {
            "bufferView" : 1,
            "componentType" : 5126,
            "count" : 126,
            "type" : "VEC3"
        },
        {
            "bufferView" : 2,
            "componentType" : 5123,
            "count" : 126,
            "type" : "SCALAR"
        }
    ],
    "bufferViews" : [
        {
            "buffer" : 0,
            "byteLength" : 1512,
            "byteOffset" : 0,
            "target" : 34962
        },
        {
            "buffer" : 0,
            "byteLength" : 1512,
            "byteOffset" : 1512,
            "target" : 34962
        },
        {
            "buffer" : 0,
            "byteLength" : 252,
            "byteOffset" : 3024,
            "target" : 34963
        }
    ],
    "buffers" : [
        {
            "byteLength" : 3276,
            "uri" : "data:application/octet-stream;base64,"
        }
    ]
}
