{
    "asset" : {
        "generator" : "Khronos glTF Blender I/O v3.4.50",
        "version" : "2.0"
    },
    "scene" : 0,
    "scenes" : [
        {
            "name" : "Scene",
            "nodes" : [
                0,
                1
            ]
        }
    ],
    "nodes" : [
        {
            "mesh" : 0,
            "name" : "Sphere.005_leaves_0",
            "rotation" : [
                -0.70710688829422,
                0,
                0,
                0.7071066498756409
            ],
            "scale" : [
                0.06750111281871796,
                0.06750112026929855,
                0.8516521453857422
            ],
            "translation" : [
                0,
                0.5756086707115173,
                0
            ]
        },
        {
            "mesh" : 1,
            "name" : "Sphere.005_wood_0",
            "rotation" : [
                -0.70710688829422,
                0,
                0,
                0.7071066498756409
            ],
            "scale" : [
                0.06750111281871796,
                0.06750112026929855,
                0.8516521453857422
            ],
            "translation" : [
                0,
                0.5756086707115173,
                0
            ]
        }
    ],
    "materials" : [
        {
            "doubleSided" : true,
            "name" : "leaves",
            "pbrMetallicRoughness" : {
                "baseColorFactor" : [
                    0.1420000046491623,
                    0.800000011920929,
                    0.1420000046491623,
                    1
                ],
                "metallicFactor" : 0,
                "roughnessFactor" : 0.8630180954933167
            }
        },
        {
            "doubleSided" : true,
            "name" : "wood",
            "pbrMetallicRoughness" : {
                "baseColorFactor" : [
                    0.26973700523376465,
                    0.21328799426555634,
                    0.16742299497127533,
                    1
                ],
                "metallicFactor" : 0,
                "roughnessFactor" : 0.9503642916679382
            }
        }
    ],
    "meshes" : [
        {
            "name" : "Sphere.005_leaves_0",
            "primitives" : [
                {
                    "attributes" : {
                        "POSITION" : 0,
                        "TEXCOORD_0" : 1,
                        "NORMAL" : 2
                    },
                    "indices" : 3,
                    "material" : 0
                }
            ]
        },
        {
            "name" : "Sphere.005_wood_0",
            "primitives" : [
                {
                    "attributes" : {
                        "POSITION" : 4,
                        "TEXCOORD_0" : 5,
                        "NORMAL" : 6
                    },
                    "indices" : 7,
                    "material" : 1
                }
            ]
        }
    ],
    "accessors" : [
        {
            "bufferView" : 0,
            "componentType" : 5126,
            "count" : 1398,
            "max" : [
                7.023056983947754,
                6.995452880859375,
                1.5041732788085938
            ],
            "min" : [
                -7.023592472076416,
                -7.349871635437012,
                -0.07601825892925262
            ],
            "type" : "VEC3"
        },
        {
            "bufferView" : 1,
            "componentType" : 5126,
            "count" : 1398,
            "type" : "VEC2"
        },
        {
            "bufferView" : 2,
            "componentType" : 5126,
            "count" : 1398,
            "type" : "VEC3"
        },
        {
            "bufferView" : 3,
            "componentType" : 5123,
            "count" : 1428,
            "type" : "SCALAR"
        },
        {
            "bufferView" : 4,
            "componentType" : 5126,
            "count" : 198,
            "max" : [
                1.633743405342102,
                1.6337419748306274,
                1.4944136142730713
            ],
            "min" : [
                -1.6337425708770752,
                -1.6337430477142334,
                -0.6669000387191772
            ],
            "type" : "VEC3"
        },
        {
            "bufferView" : 5,
            "componentType" : 5126,
            "count" : 198,
            "type" : "VEC2"
        },
        {
            "bufferView" : 6,
            "componentType" : 5126,
            "count" : 198,
            "type" : "VEC3"
        },
        {
            "bufferView" : 7,
            "componentType" : 5123,
            "count" : 228,
            "type" : "SCALAR"
        }
    ],
    "bufferViews" : [
        {
            "buffer" : 0,
            "byteLength" : 16776,
            "byteOffset" : 0,
            "target" : 34962
        },
        {
            "buffer" : 0,
            "byteLength" : 11184,
            "byteOffset" : 16776,
            "target" : 34962
        },
        {
            "buffer" : 0,
            "byteLength" : 16776,
            "byteOffset" : 27960,
            "target" : 34962
        },
        {
            "buffer" : 0,
            "byteLength" : 2856,
            "byteOffset" : 44736,
            "target" : 34963
        },
        {
            "buffer" : 0,
            "byteLength" : 2376,
            "byteOffset" : 47592,
            "target" : 34962
        },
        {
            "buffer" : 0,
            "byteLength" : 1584,
            "byteOffset" : 49968,
            "target" : 34962
        },
        {
            "buffer" : 0,
            "byteLength" : 2376,
            "byteOffset" : 51552,
            "target" : 34962
        },
        {
            "buffer" : 0,
            "byteLength" : 456,
            "byteOffset" : 53928,
            "target" : 34963
        }
    ],
    "buffers" : [
        {
            "byteLength" : 54384,
            "uri" : "data:application/octet-stream;base64,"
        }
    ]
}
