{
    "asset" : {
        "generator" : "Khronos glTF Blender I/O v3.4.50",
        "version" : "2.0"
    },
    "scene" : 0,
    "scenes" : [
        {
            "name" : "Scene",
            "nodes" : [
                0
            ]
        }
    ],
    "nodes" : [
        {
            "mesh" : 0,
            "name" : "Sphere.034_wood_0",
            "rotation" : [
                -0.70710688829422,
                0,
                0,
                0.7071066498756409
            ],
            "scale" : [
                0.06750111281871796,
                0.06750110536813736,
                0.8516520261764526
            ],
            "translation" : [
                0,
                0.5756086707115173,
                0
            ]
        }
    ],
    "materials" : [
        {
            "doubleSided" : true,
            "name" : "wood.005",
            "pbrMetallicRoughness" : {
                "baseColorFactor" : [
                    0.26973700523376465,
                    0.21328799426555634,
                    0.16742299497127533,
                    1
                ],
                "metallicFactor" : 0,
                "roughnessFactor" : 0.9503642916679382
            }
        },
        {
            "doubleSided" : true,
            "name" : "leaves.005",
            "pbrMetallicRoughness" : {
                "baseColorFactor" : [
                    0.1420000046491623,
                    0.800000011920929,
                    0.1420000046491623,
                    1
                ],
                "metallicFactor" : 0,
                "roughnessFactor" : 0.8630180954933167
            }
        }
    ],
    "meshes" : [
        {
            "name" : "Sphere.034_wood_0",
            "primitives" : [
                {
                    "attributes" : {
                        "POSITION" : 0,
                        "TEXCOORD_0" : 1,
                        "NORMAL" : 2
                    },
                    "indices" : 3,
                    "material" : 0
                },
                {
                    "attributes" : {
                        "POSITION" : 4,
                        "TEXCOORD_0" : 5,
                        "NORMAL" : 6
                    },
                    "indices" : 7,
                    "material" : 1
                }
            ]
        }
    ],
    "accessors" : [
        {
            "bufferView" : 0,
            "componentType" : 5126,
            "count" : 198,
            "max" : [
                1.633743405342102,
                1.6337419748306274,
                1.4944136142730713
            ],
            "min" : [
                -1.6337425708770752,
                -1.6337430477142334,
                -0.6669000387191772
            ],
            "type" : "VEC3"
        },
        {
            "bufferView" : 1,
            "componentType" : 5126,
            "count" : 198,
            "type" : "VEC2"
        },
        {
            "bufferView" : 2,
            "componentType" : 5126,
            "count" : 198,
            "type" : "VEC3"
        },
        {
            "bufferView" : 3,
            "componentType" : 5123,
            "count" : 228,
            "type" : "SCALAR"
        },
        {
            "bufferView" : 4,
            "componentType" : 5126,
            "count" : 1398,
            "max" : [
                9.196759223937988,
                9.160611152648926,
                1.5163750648498535
            ],
            "min" : [
                -9.197460174560547,
                -9.624725341796875,
                0.4799892008304596
            ],
            "type" : "VEC3"
        },
        {
            "bufferView" : 5,
            "componentType" : 5126,
            "count" : 1398,
            "type" : "VEC2"
        },
        {
            "bufferView" : 6,
            "componentType" : 5126,
            "count" : 1398,
            "type" : "VEC3"
        },
        {
            "bufferView" : 7,
            "componentType" : 5123,
            "count" : 1428,
            "type" : "SCALAR"
        }
    ],
    "bufferViews" : [
        {
            "buffer" : 0,
            "byteLength" : 2376,
            "byteOffset" : 0,
            "target" : 34962
        },
        {
            "buffer" : 0,
            "byteLength" : 1584,
            "byteOffset" : 2376,
            "target" : 34962
        },
        {
            "buffer" : 0,
            "byteLength" : 2376,
            "byteOffset" : 3960,
            "target" : 34962
        },
        {
            "buffer" : 0,
            "byteLength" : 456,
            "byteOffset" : 6336,
            "target" : 34963
        },
        {
            "buffer" : 0,
            "byteLength" : 16776,
            "byteOffset" : 6792,
            "target" : 34962
        },
        {
            "buffer" : 0,
            "byteLength" : 11184,
            "byteOffset" : 23568,
            "target" : 34962
        },
        {
            "buffer" : 0,
            "byteLength" : 16776,
            "byteOffset" : 34752,
            "target" : 34962
        },
        {
            "buffer" : 0,
            "byteLength" : 2856,
            "byteOffset" : 51528,
            "target" : 34963
        }
    ],
    "buffers" : [
        {
            "byteLength" : 54384,
            "uri" : "data:application/octet-stream;base64,"
        }
    ]
}
